# xmcd
#
# Track frame offsets:
#	150
#	56076
#	72657
#	116161
#	145792
#	186158
#
# Disc length: 3117 seconds
#
# Revision: 1
# Processed by: cddbd v1.5.2PL0 Copyright (c) Steve Scherf et al.
# Submitted via: audiograbber 1.83.01
#
DISCID=5e0c2b06
DTITLE=Grateful Dead - 95-05-20A Sam Boyd Silver Bowl, Las Vegas NV
DYEAR=1900
DGENRE=
TTITLE0=Mississippi Half-Step
TTITLE1=The Race Is On
TTITLE2=Lazy River Road
TTITLE3=When I Paint My Masterpiece
TTITLE4=Tennessee Jed
TTITLE5=Eternity
EXTD=
EXTT0=
EXTT1=
EXTT2=
EXTT3=
EXTT4=
EXTT5=
PLAYORDER=
